<svg width="124" height="40" viewBox="0 0 124 40" fill="none" xmlns="http://www.w3.org/2000/svg">
<rect x="1" y="1" width="122" height="38" stroke="#144868" stroke-width="2"/>
<path d="M41.6924 20.9502H37.8965V23.5591H42.3335V25H36.1064V15.7578H42.3145V17.2114H37.8965V19.541H41.6924V20.9502ZM49.9062 25H48.1289L45.5581 19.0396V25H43.7617V15.7578H45.5581L48.1099 21.6929L48.1162 15.7578H49.9062V25ZM53.7783 25L50.9854 15.7578H52.9531L54.521 21.7944L54.6797 22.4165L54.8511 21.7881L56.4253 15.7578H58.3931L55.5938 25H53.7783ZM65.877 21.0581C65.877 21.4559 65.841 21.8346 65.769 22.1943C65.6971 22.5498 65.5934 22.8799 65.458 23.1846C65.3141 23.4893 65.1364 23.7686 64.9248 24.0225C64.7132 24.2764 64.472 24.488 64.2012 24.6572C63.9557 24.8053 63.6849 24.9196 63.3887 25C63.0967 25.0846 62.7814 25.127 62.4429 25.127C62.0832 25.127 61.751 25.0804 61.4463 24.9873C61.1416 24.8942 60.8644 24.763 60.6147 24.5938C60.3693 24.416 60.1493 24.2023 59.9546 23.9526C59.7599 23.6987 59.597 23.4131 59.4658 23.0957C59.3473 22.8037 59.2563 22.4863 59.1929 22.1436C59.1336 21.8008 59.104 21.439 59.104 21.0581V19.7124C59.104 19.3062 59.1379 18.9211 59.2056 18.5571C59.2775 18.1932 59.3812 17.8568 59.5166 17.5479C59.6478 17.2559 59.8065 16.9914 59.9927 16.7544C60.1831 16.5174 60.401 16.3143 60.6465 16.145C60.8877 15.98 61.1585 15.853 61.459 15.7642C61.7594 15.6753 62.0853 15.6309 62.4365 15.6309C62.792 15.6309 63.1242 15.6774 63.4331 15.7705C63.7463 15.8594 64.0277 15.9884 64.2773 16.1577C64.527 16.3185 64.745 16.5132 64.9312 16.7417C65.1216 16.9702 65.2845 17.222 65.4199 17.4971C65.568 17.8102 65.6802 18.153 65.7563 18.5254C65.8368 18.8978 65.877 19.2935 65.877 19.7124V21.0581ZM64.0679 19.6997C64.0679 19.4627 64.0552 19.2384 64.0298 19.0269C64.0086 18.811 63.9727 18.6121 63.9219 18.4302C63.8584 18.2017 63.7738 17.9985 63.668 17.8208C63.5622 17.6388 63.4373 17.4907 63.2935 17.3765C63.1792 17.2918 63.0501 17.2262 62.9062 17.1797C62.7666 17.1331 62.61 17.1099 62.4365 17.1099C62.2715 17.1099 62.1213 17.131 61.9858 17.1733C61.8547 17.2157 61.7362 17.277 61.6304 17.3574C61.4865 17.4759 61.3638 17.624 61.2622 17.8018C61.1649 17.9795 61.0887 18.1868 61.0337 18.4238C60.9914 18.6058 60.9596 18.8047 60.9385 19.0205C60.9215 19.2363 60.9131 19.4627 60.9131 19.6997V21.0581C60.9131 21.2824 60.9215 21.4982 60.9385 21.7056C60.9554 21.9129 60.985 22.1055 61.0273 22.2832C61.0739 22.5075 61.1416 22.7127 61.2305 22.8989C61.3236 23.0809 61.4315 23.229 61.5542 23.3433C61.6685 23.4448 61.7975 23.5231 61.9414 23.5781C62.0895 23.6331 62.2567 23.6606 62.4429 23.6606C62.6206 23.6606 62.7835 23.6353 62.9316 23.5845C63.0798 23.5337 63.2109 23.4596 63.3252 23.3623C63.4691 23.2438 63.5897 23.0957 63.687 22.918C63.7886 22.736 63.869 22.5308 63.9282 22.3022C63.9748 22.1245 64.0086 21.9299 64.0298 21.7183C64.0552 21.5067 64.0679 21.2866 64.0679 21.0581V19.6997ZM70.3901 20.0171L72.2119 15.7578H74.1733L71.2661 21.8008L71.2598 25H69.4824L69.4761 21.7246L66.6133 15.7578H68.5684L70.3901 20.0171ZM80.7305 20.9502H76.9346V23.5591H81.3716V25H75.1445V15.7578H81.3525V17.2114H76.9346V19.541H80.7305V20.9502ZM85.9863 21.5469H84.6343V25H82.8506V15.7578H85.9482C86.4603 15.7578 86.9237 15.8192 87.3384 15.9419C87.7531 16.0604 88.1086 16.236 88.4048 16.4688C88.6968 16.7015 88.9211 16.9914 89.0776 17.3384C89.2384 17.6854 89.3188 18.0874 89.3188 18.5444C89.3188 18.8745 89.2786 19.1729 89.1982 19.4395C89.1221 19.7018 89.012 19.9367 88.8682 20.144C88.7201 20.3556 88.5423 20.5397 88.335 20.6963C88.1318 20.8529 87.9033 20.9883 87.6494 21.1025L89.6362 24.9175V25H87.7256L85.9863 21.5469ZM84.6343 20.0996H85.9546C86.2297 20.0996 86.4709 20.0615 86.6782 19.9854C86.8898 19.9049 87.0612 19.7907 87.1924 19.6426C87.3024 19.5241 87.3849 19.3823 87.4399 19.2173C87.4992 19.0522 87.5288 18.8682 87.5288 18.665C87.5288 18.4196 87.4907 18.2038 87.4146 18.0176C87.3426 17.8271 87.2326 17.6706 87.0845 17.5479C86.9533 17.4378 86.7925 17.3532 86.6021 17.2939C86.4116 17.2347 86.1937 17.2051 85.9482 17.2051H84.6343V20.0996Z" fill="#343434"/>
</svg>
