<svg width="80" height="30" viewBox="0 0 80 30" fill="none" xmlns="http://www.w3.org/2000/svg">
<rect x="0.5" y="0.5" width="79" height="29" stroke="#144868"/>
<path d="M11.127 18.5591H15.4561V20H9.33691V10.7578H11.127V18.5591ZM17.4175 10.7578H22.7622V12.1987H20.9595V18.5654H22.7622V20H17.4175V18.5654H19.1758V12.1987H17.4175V10.7578ZM27.9673 16.5469H26.6152V20H24.8315V10.7578H27.9292C28.4412 10.7578 28.9046 10.8192 29.3193 10.9419C29.734 11.0604 30.0895 11.236 30.3857 11.4688C30.6777 11.7015 30.902 11.9914 31.0586 12.3384C31.2194 12.6854 31.2998 13.0874 31.2998 13.5444C31.2998 13.8745 31.2596 14.1729 31.1792 14.4395C31.103 14.7018 30.993 14.9367 30.8491 15.144C30.701 15.3556 30.5233 15.5397 30.3159 15.6963C30.1128 15.8529 29.8843 15.9883 29.6304 16.1025L31.6172 19.9175V20H29.7065L27.9673 16.5469ZM26.6152 15.0996H27.9355C28.2106 15.0996 28.4518 15.0615 28.6592 14.9854C28.8708 14.9049 29.0422 14.7907 29.1733 14.6426C29.2834 14.5241 29.3659 14.3823 29.4209 14.2173C29.4801 14.0522 29.5098 13.8682 29.5098 13.665C29.5098 13.4196 29.4717 13.2038 29.3955 13.0176C29.3236 12.8271 29.2135 12.6706 29.0654 12.5479C28.9342 12.4378 28.7734 12.3532 28.583 12.2939C28.3926 12.2347 28.1746 12.2051 27.9292 12.2051H26.6152V15.0996ZM38.3267 15.9502H34.5308V18.5591H38.9678V20H32.7407V10.7578H38.9487V12.2114H34.5308V14.541H38.3267V15.9502Z" fill="#1C1918"/>
<path d="M64.1373 14.2502L59.8461 10.2272L60.9775 9.1665L67.2 15.0002L60.9775 20.8337L59.8461 19.7731L64.1373 15.7502H54.4V14.2502H64.1373Z" fill="#1C1918"/>
</svg>
