<svg width="124" height="40" viewBox="0 0 124 40" fill="none" xmlns="http://www.w3.org/2000/svg">
<rect x="1" y="1" width="122" height="38" stroke="#144868" stroke-width="2"/>
<path d="M52.0151 22.5879C52.0151 22.4229 51.9855 22.2684 51.9263 22.1245C51.8713 21.9806 51.776 21.8452 51.6406 21.7183C51.501 21.5955 51.319 21.4834 51.0947 21.3818C50.8747 21.276 50.5996 21.1787 50.2695 21.0898C49.7575 20.9502 49.3068 20.7809 48.9175 20.582C48.5324 20.3831 48.2171 20.1652 47.9717 19.9282C47.7262 19.6912 47.54 19.4289 47.4131 19.1411C47.2904 18.8534 47.229 18.5402 47.229 18.2017C47.229 17.8123 47.3115 17.459 47.4766 17.1416C47.6416 16.8242 47.8701 16.5534 48.1621 16.3291C48.4541 16.1048 48.799 15.9334 49.1968 15.8149C49.5946 15.6922 50.0262 15.6309 50.4917 15.6309C50.9741 15.6309 51.4142 15.7007 51.812 15.8403C52.214 15.98 52.5589 16.1746 52.8467 16.4243C53.1344 16.6782 53.3587 16.9787 53.5195 17.3257C53.6803 17.6727 53.7607 18.0535 53.7607 18.4683H52.0215C52.013 18.2609 51.9749 18.0705 51.9072 17.897C51.8438 17.7235 51.7485 17.5732 51.6216 17.4463C51.4904 17.3236 51.3275 17.2284 51.1328 17.1606C50.9424 17.0887 50.7181 17.0527 50.46 17.0527C50.223 17.0527 50.0114 17.0824 49.8252 17.1416C49.6432 17.1966 49.4888 17.2749 49.3618 17.3765C49.2349 17.4823 49.1375 17.6071 49.0698 17.751C49.0063 17.8906 48.9746 18.043 48.9746 18.208C48.9746 18.3815 49.0169 18.5381 49.1016 18.6777C49.1904 18.8174 49.3174 18.9422 49.4824 19.0522C49.6475 19.1665 49.8464 19.2702 50.0791 19.3633C50.3161 19.4564 50.5827 19.5431 50.8789 19.6235C51.1963 19.7124 51.4989 19.8203 51.7866 19.9473C52.0744 20.0742 52.3389 20.2202 52.5801 20.3853C52.944 20.6561 53.2339 20.9714 53.4497 21.3311C53.6655 21.6908 53.7734 22.1055 53.7734 22.5752C53.7734 22.9814 53.6909 23.3433 53.5259 23.6606C53.3651 23.9738 53.1408 24.2383 52.853 24.4541C52.5653 24.6742 52.2225 24.8413 51.8247 24.9556C51.4269 25.0656 50.9932 25.1206 50.5234 25.1206C50.0622 25.1206 49.6051 25.0529 49.1523 24.9175C48.7038 24.7778 48.3123 24.5747 47.978 24.3081C47.6606 24.0457 47.4089 23.7368 47.2227 23.3813C47.0407 23.0259 46.9497 22.609 46.9497 22.1309H48.7017C48.7101 22.4102 48.7588 22.6493 48.8477 22.8481C48.9365 23.047 49.0614 23.21 49.2222 23.3369C49.3787 23.4639 49.5671 23.557 49.7871 23.6162C50.0114 23.6755 50.2568 23.7051 50.5234 23.7051C50.7604 23.7051 50.9699 23.6776 51.1519 23.6226C51.3381 23.5675 51.4946 23.4914 51.6216 23.394C51.7485 23.2967 51.8459 23.1803 51.9136 23.0449C51.9813 22.9053 52.0151 22.7529 52.0151 22.5879ZM60.7114 20.9502H56.9155V23.5591H61.3525V25H55.1255V15.7578H61.3335V17.2114H56.9155V19.541H60.7114V20.9502ZM68.9253 25H67.1479L64.5771 19.0396V25H62.7808V15.7578H64.5771L67.1289 21.6929L67.1353 15.7578H68.9253V25ZM70.6011 25V15.7578H72.9941C73.4215 15.7578 73.8215 15.8107 74.1938 15.9165C74.5662 16.0181 74.9048 16.1641 75.2095 16.3545C75.4761 16.5111 75.7131 16.7036 75.9204 16.9321C76.132 17.1564 76.3161 17.4019 76.4727 17.6685C76.6546 17.9943 76.7943 18.354 76.8916 18.7476C76.9932 19.1411 77.0439 19.5601 77.0439 20.0044V20.7661C77.0439 21.1935 76.9974 21.5977 76.9043 21.9785C76.8112 22.3594 76.68 22.7085 76.5107 23.0259C76.3499 23.3094 76.1616 23.5718 75.9458 23.813C75.73 24.05 75.493 24.2489 75.2349 24.4097C74.9344 24.6001 74.6022 24.7461 74.2383 24.8477C73.8786 24.9492 73.4935 25 73.083 25H70.6011ZM72.3975 17.2051V23.5654H73.083C73.3031 23.5654 73.5083 23.5379 73.6987 23.4829C73.8892 23.4279 74.0627 23.3475 74.2192 23.2417C74.38 23.1317 74.5239 22.992 74.6509 22.8228C74.7821 22.6493 74.8942 22.4482 74.9873 22.2197C75.0635 22.0208 75.1206 21.8008 75.1587 21.5596C75.201 21.3141 75.2222 21.0496 75.2222 20.7661V19.9917C75.2222 19.7251 75.201 19.4733 75.1587 19.2363C75.1206 18.9951 75.0635 18.7751 74.9873 18.5762C74.8942 18.3392 74.7715 18.1276 74.6191 17.9414C74.471 17.7552 74.2975 17.6029 74.0986 17.4844C73.9463 17.3955 73.777 17.3278 73.5908 17.2812C73.4089 17.2305 73.21 17.2051 72.9941 17.2051H72.3975Z" fill="#343434"/>
</svg>
