<svg width="111" height="26" viewBox="0 0 111 26" fill="none" xmlns="http://www.w3.org/2000/svg">
<path d="M6.2342 17.342V14.066H6.4322C7.2362 14.066 7.8182 13.91 8.1782 13.598C8.5502 13.274 8.7542 12.812 8.7902 12.212C8.8502 11.168 8.8802 10.118 8.8802 9.062C8.8802 8.006 8.8502 7.004 8.7902 6.056C8.7542 5.432 8.5502 4.964 8.1782 4.652C7.8062 4.34 7.2302 4.184 6.4502 4.184H6.2342V0.943999H6.4502C7.7582 0.943999 8.8502 1.106 9.7262 1.43C10.6022 1.754 11.2682 2.3 11.7242 3.068C12.1922 3.836 12.4502 4.898 12.4982 6.254C12.5342 6.986 12.5522 7.652 12.5522 8.252C12.5642 8.852 12.5642 9.452 12.5522 10.052C12.5522 10.64 12.5342 11.3 12.4982 12.032C12.4502 13.388 12.1862 14.45 11.7062 15.218C11.2382 15.986 10.5662 16.532 9.6902 16.856C8.8142 17.18 7.7282 17.342 6.4322 17.342H6.2342ZM0.546203 26V0.943999H4.2362V26H0.546203ZM13.2148 26L16.6888 0.943999H22.7548L23.2408 4.184H19.2808L18.6328 11.222L18.0208 16.712H20.5228L19.9828 19.97H17.6608L16.9948 26H13.2148ZM22.4488 26L20.7928 11.204L20.1448 5.282H23.3488L26.2468 26H22.4488ZM34.2186 17.342V14.066H34.4166C35.2206 14.066 35.8026 13.91 36.1626 13.598C36.5346 13.274 36.7386 12.812 36.7746 12.212C36.8346 11.168 36.8646 10.118 36.8646 9.062C36.8646 8.006 36.8346 7.004 36.7746 6.056C36.7386 5.432 36.5346 4.964 36.1626 4.652C35.7906 4.34 35.2146 4.184 34.4346 4.184H34.2186V0.943999H34.4346C35.7426 0.943999 36.8346 1.106 37.7106 1.43C38.5866 1.754 39.2526 2.3 39.7086 3.068C40.1766 3.836 40.4346 4.898 40.4826 6.254C40.5186 6.986 40.5366 7.652 40.5366 8.252C40.5486 8.852 40.5486 9.452 40.5366 10.052C40.5366 10.64 40.5186 11.3 40.4826 12.032C40.4346 13.388 40.1706 14.45 39.6906 15.218C39.2226 15.986 38.5506 16.532 37.6746 16.856C36.7986 17.18 35.7126 17.342 34.4166 17.342H34.2186ZM28.5306 26V0.943999H32.2206V26H28.5306ZM43.2259 26V0.943999H46.9159V26H43.2259ZM55.8079 26H51.8839L49.2919 17.108H48.6079V13.85H49.2559C49.7119 13.85 50.1079 13.796 50.4439 13.688C50.7799 13.568 51.0499 13.376 51.2539 13.112C51.4579 12.836 51.5779 12.464 51.6139 11.996C51.6619 11.588 51.6919 11.12 51.7039 10.592C51.7159 10.052 51.7219 9.5 51.7219 8.936C51.7219 8.372 51.7099 7.838 51.6859 7.334C51.6619 6.83 51.6379 6.404 51.6139 6.056C51.5899 5.576 51.4759 5.204 51.2719 4.94C51.0799 4.664 50.8159 4.472 50.4799 4.364C50.1439 4.244 49.7419 4.184 49.2739 4.184H48.6079V0.943999H49.2739C49.8259 0.943999 50.4319 0.979999 51.0919 1.052C51.7639 1.112 52.4119 1.298 53.0359 1.61C53.6599 1.922 54.1819 2.444 54.6019 3.176C55.0219 3.896 55.2619 4.922 55.3219 6.254C55.3339 6.59 55.3459 6.974 55.3579 7.406C55.3699 7.826 55.3759 8.282 55.3759 8.774C55.3759 9.266 55.3699 9.776 55.3579 10.304C55.3579 10.82 55.3459 11.324 55.3219 11.816C55.2499 13.184 54.9679 14.228 54.4759 14.948C53.9959 15.656 53.4199 16.166 52.7479 16.478L55.8079 26ZM58.2728 26V0.943999H61.9628V26H58.2728ZM65.2337 26V12.878H69.2477L71.5697 5.714L73.5497 0.943999H77.5997L68.9957 20.744V26H65.2337ZM74.1797 26L71.5517 18.224L73.7837 13.58L77.9417 26H74.1797ZM65.2337 11.744V0.943999H69.1397L69.1037 5.714L68.4197 11.744H65.2337ZM77.121 14.444V10.988H88.695V14.444H77.121ZM91.4251 26V0.943999H95.1151V26H91.4251ZM97.414 26L100.888 0.943999H106.954L107.44 4.184H103.48L102.832 11.222L102.22 16.712H104.722L104.182 19.97H101.86L101.194 26H97.414ZM106.648 26L104.992 11.204L104.344 5.282H107.548L110.446 26H106.648Z" fill="#F6F3F1"/>
<a href="https://www.figma.com/file/25mwlVTdNj7tTsFUw7mEJu/Projet-individuel-refait?type=design&#38;node-id=1606-620&#38;mode=design">
<rect fill="black" fill-opacity="0" x="23.9082" y="-6.624" width="14.688" height="43.092"/>
</a>
</svg>
