<svg width="32" height="32" viewBox="0 0 32 32" fill="none" xmlns="http://www.w3.org/2000/svg">
<path d="M16.3252 5.3335C17.0374 5.33742 18.8191 5.35464 20.7122 5.43047L21.3834 5.45974C23.2894 5.54998 25.1938 5.70414 26.1383 5.9675C27.3982 6.32143 28.3884 7.35416 28.7231 8.66326C29.256 10.742 29.3227 14.7994 29.331 15.7812L29.3322 15.9847V15.999C29.3322 15.999 29.3322 16.0039 29.3322 16.0134L29.331 16.2168C29.3227 17.1987 29.256 21.256 28.7231 23.3348C28.3838 24.6487 27.3935 25.6815 26.1383 26.0306C25.1938 26.2939 23.2894 26.448 21.3834 26.5383L20.7122 26.5675C18.8191 26.6434 17.0374 26.6606 16.3252 26.6646L16.0127 26.6656H15.9988C15.9988 26.6656 15.9942 26.6656 15.985 26.6656L15.6727 26.6646C14.1655 26.6563 7.86365 26.5882 5.85937 26.0306C4.59949 25.6766 3.60925 24.6439 3.27451 23.3348C2.74162 21.256 2.67501 17.1987 2.66669 16.2168V15.7812C2.67501 14.7994 2.74162 10.742 3.27451 8.66326C3.61389 7.34931 4.60413 6.31659 5.85937 5.9675C7.86365 5.4098 14.1655 5.34179 15.6727 5.3335H16.3252ZM13.3322 11.3323V20.6656L21.3322 15.999L13.3322 11.3323Z" fill="#F6F3F1"/>
</svg>
